<?xml version="1.0" encoding="UTF-8"?>
<svg id="Calque_1" data-name="Calque 1" xmlns="http://www.w3.org/2000/svg" viewBox="0 0 226.77 226.77">
  <defs>
    <style>
      .cls-1 {
        fill: #010101;
      }

      .cls-1, .cls-2, .cls-3 {
        stroke-width: 0px;
      }

      .cls-2 {
        fill: #e73742;
      }

      .cls-3 {
        fill: #fce226;
      }
    </style>
  </defs>
  <g>
    <g>
      <path class="cls-1" d="m179.18,119.66l26.64-39.66c-.13-.26-89.83,102.09-89.83,102.09L32.9,78.13s24.96-50.26,24.96-50.31l124.88-10.24H51.46l-30.8,61.86,95.33,119.26,63.18-79.04Z"/>
      <polygon class="cls-1" points="176.22 20.53 55.77 20.53 26.17 80 116 192.37 205.83 80 176.22 20.53"/>
    </g>
    <g>
      <g>
        <path class="cls-3" d="m111.46,63.69l-26.8-29.39c-2.46-2.7-6.95-2.69-10.03.02l-3.71,3.26c-3.08,2.7-3.59,7.08-1.13,9.78l19.39,21.26-24.52,21.4c-3.09,2.7-3.6,7.06-1.13,9.75l3.04,3.31c2.47,2.69,6.97,2.68,10.06-.01l33.68-29.39c1.55-1.35,2.45-3.13,2.65-4.9.27-1.83-.21-3.68-1.48-5.08Z"/>
        <g>
          <path class="cls-1" d="m85.85,96.66l18.02-13.31,9.01-6.65c2.14-1.64,3.89-4.23,4.43-7.18.13-.62.23-1.44.23-2.22,0-.79-.08-1.61-.26-2.41-.35-1.61-1.13-3.21-2.22-4.51,1.48,1.61,2.46,3.75,2.73,5.86.08.53.11,1.06.11,1.58,0,.51-.04,1.07-.1,1.48l-.09.67c-.05.25-.09.5-.15.75-.11.5-.26.97-.43,1.44-.69,1.87-1.82,3.51-3.19,4.82l-.49.45-.34.3-.68.59-1.35,1.18-10.82,9.45-10.83,9.45-5.41,4.72-2.71,2.36-1.35,1.18c-.08.08-.28.24-.47.39l-.56.44c-.39.27-.78.54-1.19.78-1.65.94-3.51,1.56-5.47,1.7-1.95.14-4.03-.16-5.95-1.09-.96-.45-1.87-1.07-2.68-1.8l-.58-.57-.35-.37-.61-.66-1.21-1.32-.61-.66-.3-.33-.23-.26-.26-.32c-1.41-1.69-2.21-3.88-2.39-5.99-.15-2.12.25-4.18,1.1-5.96.4-.91.94-1.72,1.52-2.49.3-.37.62-.74.94-1.08l.51-.49.26-.24.17-.15,2.71-2.36,17.86-15.59-13.74-15.07-2.14-2.35-.15-.17-.23-.28-.45-.57c-.28-.4-.55-.81-.78-1.23-.45-.86-.82-1.77-1.03-2.7-.9-3.77.27-7.47,2.33-10.14.26-.34.55-.65.83-.97.29-.3.6-.59.9-.87l1.19-1.05,2.39-2.09.17-.14.24-.2.49-.39c.33-.26.69-.48,1.04-.71.72-.44,1.48-.81,2.27-1.11,1.59-.59,3.32-.87,5.1-.77,1.55.17,3.11.64,4.53,1.46.71.41,1.37.91,1.97,1.46.3.28.57.59.84.89l.45.57,3.43,4.44,6.86,8.87,13.72,17.75-16.09-17.65-8.05-8.82-2.01-2.21c-.59-.67-1.51-1.68-2.57-2.21-2.13-1.13-4.64-1.17-6.79-.39-1.08.39-2.09.97-2.95,1.71l-2.26,1.98c-.76.69-1.46,1.22-2.3,2.1-.78.84-1.4,1.84-1.82,2.93-.84,2.15-.78,4.8.54,6.87.16.26.33.51.53.74l.28.34.25.28,1.01,1.1,2.01,2.21,15.23,16.7-12.26,10.7-6.62,5.77-3.31,2.89-.83.72c-.28.24-.54.46-.86.77-.61.58-1.15,1.24-1.58,1.98-.88,1.45-1.32,3.2-1.2,4.96.08.88.31,1.75.69,2.55.18.41.43.78.68,1.15.28.35.57.7.8.94l1.48,1.62.74.81c.26.28.46.52.81.85,1.26,1.26,2.99,1.95,4.69,2.1,1.71.13,3.43-.23,4.92-1.02.75-.36,1.45-.91,2.05-1.42l1.65-1.44,6.62-5.77Z"/>
          <path class="cls-3" d="m83.81,94.3l18.02-13.31,9.01-6.65c1.64-1.22,2.95-3.09,3.39-5.25.51-2.08.1-4.7-1.46-6.59,1.05,1.15,1.74,2.65,1.94,4.17.11.75.1,1.55,0,2.25-.07.69-.25,1.47-.51,2.15-.52,1.4-1.36,2.64-2.41,3.64l-2.76,2.42-10.83,9.45-10.82,9.45-5.41,4.72-2.71,2.36-1.35,1.18c-.22.19-.54.44-.82.66-.3.2-.6.41-.91.59-2.5,1.44-5.73,1.84-8.53.5-.7-.32-1.34-.77-1.92-1.29l-.42-.41c-.14-.14-.21-.23-.32-.34l-.61-.66-1.21-1.32-.61-.66-.3-.33c-.1-.11-.24-.29-.36-.43-1-1.2-1.56-2.75-1.7-4.27-.1-1.53.18-3.06.82-4.39.6-1.33,1.59-2.55,2.63-3.41l2.71-2.36,20.28-17.69-15.9-17.44-2.14-2.35c-.17-.18-.43-.51-.63-.76-.2-.28-.39-.57-.55-.87-.32-.61-.59-1.26-.73-1.93-.65-2.69.19-5.46,1.76-7.49.2-.25.42-.49.63-.73l.69-.67,1.19-1.05,2.39-2.09c1.84-1.68,4.45-2.72,7.07-2.56,1.15.14,2.28.51,3.28,1.11.5.3.96.66,1.38,1.06.2.2.39.43.58.64l.43.56,3.43,4.44,6.86,8.87,13.72,17.75-16.09-17.65-8.05-8.82-2.01-2.21c-.76-.84-1.1-1.21-1.74-1.56-1.22-.66-2.83-.72-4.27-.2-.72.26-1.39.65-1.98,1.15l-2.23,1.95-1.12.98c-.17.16-.4.35-.53.47-.13.14-.29.26-.41.41-.52.57-.93,1.22-1.2,1.92-.54,1.39-.47,2.95.27,4.09.09.14.18.29.3.41l.17.21.25.28,1.01,1.1,2.01,2.21,17.39,19.07-14.68,12.81-6.62,5.77-3.31,2.89-.83.72c-.27.24-.58.5-.75.68-.42.39-.77.83-1.05,1.31-.59.95-.84,2.06-.77,3.09.05.52.18,1.01.4,1.46.1.23.24.43.38.64l.24.29c.07.09.23.26.34.38l1.48,1.62.74.81c.24.25.53.59.68.72.71.71,1.71,1.12,2.79,1.22,1.08.08,2.22-.15,3.22-.68.53-.26.93-.57,1.43-1l1.65-1.44,6.62-5.77Z"/>
          <path class="cls-2" d="m81.82,92.01l18.02-13.31,9.01-6.65c1.15-.8,2.04-1.98,2.37-3.39.39-1.44.19-2.91-.7-4.11.63.7,1.05,1.58,1.17,2.54.13.93-.01,2.02-.34,2.93-.35.93-.92,1.79-1.66,2.5l-2.66,2.33-10.82,9.45-10.83,9.45-5.41,4.72-2.71,2.36-1.35,1.18c-.23.2-.41.33-.61.5-.21.14-.42.29-.64.41-1.75,1.02-3.98,1.24-5.72.39-.44-.2-.83-.47-1.18-.79-.31-.28-.77-.81-1.16-1.23l-1.21-1.32-.61-.66c-.21-.22-.41-.45-.54-.62-.61-.72-.94-1.64-1.03-2.6-.06-.96.11-1.96.55-2.87.43-.92,1.03-1.7,1.87-2.4l2.71-2.36,22.62-19.74-18-19.74-2.14-2.35c-.63-.66-1-1.37-1.2-2.21-.42-1.65.11-3.52,1.2-4.92.14-.18.29-.34.44-.51l.49-.47,1.19-1.05,2.39-2.09c1.37-1.25,3.15-1.91,4.91-1.81.76.12,1.47.39,2.06.78.3.2.56.43.8.67l.33.39.42.55,3.43,4.44,6.86,8.87,13.72,17.75-16.09-17.65-8.05-8.82-2.01-2.21-.5-.55-.13-.14s-.03-.02-.04-.04c-.02-.01-.03-.03-.05-.05-.06-.06-.14-.11-.22-.17-.35-.19-1.08-.29-1.82-.02-.37.13-.73.34-1.05.61l-2.19,1.91-1.12.98-.28.25c-.1.09-.2.17-.21.19-.07.08-.16.14-.22.22-.27.3-.47.63-.59.95-.24.66-.16,1.17.01,1.4.02.03.04.07.07.1.02.02,0,.02.05.07l.25.28,1.01,1.1,2.01,2.21,19.49,21.37-17.02,14.86-6.62,5.77-3.31,2.89-.83.72c-.27.23-.61.53-.65.58-.23.21-.41.44-.54.67-.3.46-.36.95-.35,1.29.02.17.06.29.11.4.02.06.06.1.08.15.03.02.05.04.06.07-.02,0,.06.07.12.14l.19.2,1.48,1.62.74.81.37.4.09.1.05.05h.01s.04.04.04.04c.17.19.47.32.94.38.47.03,1.05-.07,1.58-.35.14-.06.26-.15.39-.23.07-.03.12-.1.18-.14.06-.05.1-.07.27-.22l1.65-1.44,6.62-5.77Z"/>
        </g>
      </g>
      <g>
        <path class="cls-3" d="m111.93,101.79l1.07-9.13c.3-2.58,2.64-4.66,5.22-4.66h47.67c2.58,0,4.43,2.09,4.13,4.66l-1.07,9.13c-.3,2.58-2.64,4.66-5.22,4.66h-47.67c-2.58,0-4.43-2.09-4.13-4.66Z"/>
        <g>
          <path class="cls-1" d="m139.35,107.31l-15.18,1.24-7.59.62-.47.04c-.19.01-.49,0-.72,0-.51-.02-1.03-.1-1.54-.23-1.03-.27-2.03-.8-2.86-1.55-1.7-1.49-2.54-3.89-2.36-6.04-.25,1.98.33,4.26,1.79,5.89,1.43,1.66,3.63,2.52,5.61,2.5h7.06s14.08,0,14.08,0h26.65s.37-.02.37-.02c.25,0,.49-.03.73-.07.49-.07.96-.19,1.42-.34,1.83-.61,3.38-1.79,4.46-3.35.54-.78.96-1.66,1.23-2.61.07-.24.13-.48.16-.72.04-.23.09-.54.1-.64l.1-.88.82-7.02.1-.88.03-.22.03-.38c.02-.25.03-.5.02-.76-.02-1.03-.26-2.09-.73-3.06-.91-1.97-2.8-3.46-4.83-3.95-.5-.13-1.02-.21-1.51-.23l-.38-.02h-.23s-.44,0-.44,0h-33.44l-7.59.62-3.79.31-1.9.16c-.25.02-.8.05-1.23.14-.45.08-.88.21-1.3.38-1.65.66-2.97,1.87-3.78,3.36-.4.74-.67,1.56-.78,2.41-.06.47-.05.74-.07,1.06l-.03.96-.27,7.64.82-7.02.21-1.76c.03-.27.08-.62.15-.96.08-.34.19-.66.32-.98.54-1.27,1.49-2.32,2.66-3,.59-.34,1.23-.59,1.91-.72.34-.06.68-.1,1.03-.1h.89s3.52,0,3.52,0h43.12c.28,0,.67,0,1,.07.69.1,1.37.35,1.97.73,1.21.76,2.03,2.11,2.19,3.51.1.7,0,1.43-.07,1.97l-.21,1.76-.41,3.51-.21,1.76-.1.88c-.04.3-.06.57-.13.93-.25,1.37-.99,2.6-2,3.5-1.01.9-2.32,1.48-3.7,1.55-1.26.03-2.37,0-3.57.01h-21.12Z"/>
          <path class="cls-3" d="m139.35,105.18l-15.18,1.24-7.59.62c-.59.06-1.39.1-2.1-.08-.73-.17-1.43-.53-2.02-1.04-1.2-1.01-1.84-2.68-1.74-4.27-.18,1.46.24,3.08,1.27,4.23,1.01,1.17,2.56,1.79,4.03,1.78h7.05s14.08,0,14.08,0h26.4c.65,0,1.44-.09,2.11-.32,1.38-.45,2.56-1.36,3.38-2.54.41-.59.73-1.25.92-1.96.1-.34.16-.75.2-1.05l.1-.88.82-7.02.1-.88.03-.22.02-.28c.01-.18.02-.37.01-.56-.02-.75-.19-1.51-.52-2.2-.65-1.39-1.97-2.45-3.44-2.8-.73-.2-1.52-.18-2.04-.18h-33.44l-7.59.62-3.79.31-1.9.16c-.64.04-1.28.16-1.86.41-1.16.49-2.1,1.4-2.64,2.46-.27.53-.44,1.1-.49,1.67-.04.56-.05,1.25-.08,1.87l-.27,7.64.82-7.02.21-1.76c.03-.32.07-.53.11-.74.05-.21.12-.42.2-.63.35-.82.99-1.53,1.77-1.99.39-.23.81-.39,1.24-.47.22-.04.43-.06.65-.06h.87s3.52,0,3.52,0h43.12c.16,0,.27,0,.37.01.11,0,.21,0,.32.03.41.06.8.2,1.14.42.68.43,1.13,1.16,1.23,1.98.03.21.04.42.02.63v.16s-.03.22-.03.22l-.05.44-.21,1.76-.41,3.51-.21,1.76-.1.88c-.03.29-.07.62-.11.8-.15.85-.63,1.68-1.31,2.28-.68.6-1.55.98-2.41,1.02-.18.02-.53,0-.81.01h-23.76Z"/>
          <path class="cls-2" d="m139.35,103.11l-15.18,1.24-7.59.62-.82.06c-.22,0-.44-.01-.66-.05-.43-.08-.84-.27-1.19-.54-.71-.55-1.17-1.5-1.14-2.55-.11.96.16,1.93.77,2.62.61.7,1.53,1.08,2.5,1.08h7.04s14.08,0,14.08,0h26.4c.54,0,.99-.06,1.46-.22.93-.3,1.77-.94,2.34-1.76.28-.41.5-.86.62-1.33.07-.24.1-.45.14-.74l.1-.88.82-7.02c.06-.58.16-1.2.15-1.64-.01-.48-.12-.94-.32-1.36-.39-.84-1.17-1.47-2.08-1.69-.46-.12-.91-.12-1.54-.12h-33.44l-7.59.62-3.79.31-1.9.16c-.37.03-.49.06-.68.11-.18.05-.36.12-.53.2-.68.33-1.26.94-1.54,1.59-.14.33-.21.65-.21.96l-.06,1.73-.27,7.64.82-7.02.21-1.76.03-.22c0-.07.02-.16.02-.16l.02-.14c.02-.09.05-.19.09-.28.16-.38.5-.77.9-1,.2-.12.4-.19.6-.23.1-.02.19-.02.28-.03h.85s3.52,0,3.52,0h43.32s.06,0,.06,0c.04,0,.08,0,.12.01.15.02.25.07.34.12.16.11.26.24.3.5,0,.07.02.14,0,.23v.06s-.03.22-.03.22l-.05.44-.21,1.76-.41,3.51-.39,3.3c-.06.36-.29.78-.65,1.1-.36.32-.8.49-1.16.51h-3.34s-7.04,0-7.04,0h-14.08Z"/>
        </g>
      </g>
    </g>
  </g>
  <path class="cls-3" d="m216.62,79.95l-38.39-63.7s31.4,63.01,31.3,63.08l-33.64,42.09H56.12l-33.71-42.17,29.97-60.2,130.37-10.4H45.97L10.17,80.56l105.83,132.39,70.11-87.71,30.51-45.18.04-.05-.04-.06Zm-42.54,43.72l-.69.87H58.61l-.69-.87h116.17Zm-98.53,22.07h80.89l-.91,1.13h-79.08l-.91-1.13Zm40.45,50.6l-37.74-47.21h75.48l-37.74,47.21Z"/>
  <path class="cls-2" d="m226.77,81.18L185.93,12.39l33.67,67.63c.08.17-103.6,130.14-103.6,130.14L12.23,80.34,47.05,10.4,182.74,0H40.65L0,81.66l116,145.12,110.77-145.59Z"/>
  <g>
    <path class="cls-1" d="m70.23,143.87v-17.85h10.73c.65,0,1.25.1,1.82.3.56.2,1.05.49,1.46.87.41.38.73.85.97,1.39.24.54.36,1.15.36,1.84,0,.97-.27,1.8-.81,2.51-.54.71-1.3,1.15-2.28,1.34.55.12,1.06.3,1.53.55.47.25.88.56,1.23.94.35.37.62.81.81,1.3.19.49.29,1.04.29,1.64,0,1.25-.23,2.23-.7,2.92-.46.7-1.05,1.22-1.77,1.55s-1.49.53-2.34.6c-.85.07-1.65.1-2.41.1h-8.89Zm9.61-10.72c.65,0,1.12-.19,1.41-.58.29-.38.44-.83.44-1.35,0-.47-.13-.89-.4-1.26s-.72-.56-1.37-.56h-5.35v3.75h5.28Zm-5.28,2.92v4.22h4.88c.3,0,.61-.03.95-.1.33-.07.63-.18.91-.35s.5-.4.67-.69c.17-.29.26-.66.26-1.11,0-.4-.09-.73-.27-.99-.18-.26-.41-.46-.67-.61-.27-.15-.56-.25-.87-.3-.32-.05-.6-.07-.85-.07h-5Z"/>
    <path class="cls-1" d="m89.15,143.87v-17.85h14.21v3.65h-9.88v3.28h7.99v3.5h-7.99v3.77h9.91v3.65h-14.24Z"/>
    <path class="cls-1" d="m106.54,143.87v-17.85h10.45c.98,0,1.83.19,2.54.56.71.37,1.3.86,1.75,1.46s.8,1.27,1.02,2.03c.23.75.34,1.5.34,2.25,0,.83-.16,1.6-.47,2.3-.32.7-.74,1.3-1.27,1.8-.53.5-1.15.89-1.86,1.18-.7.28-1.45.42-2.23.42h-5.87v5.85h-4.41Zm4.33-14.15v4.65h5.35c.65,0,1.16-.2,1.53-.59.37-.39.56-.9.56-1.54,0-.87-.2-1.5-.6-1.91-.4-.41-.95-.61-1.64-.61h-5.2Z"/>
    <path class="cls-1" d="m136.94,126.02h4.13v11.03c0,2.45-.68,4.28-2.04,5.48-1.36,1.2-3.38,1.8-6.05,1.8-2.51,0-4.43-.65-5.79-1.95-1.35-1.3-2.03-3.17-2.03-5.6v-10.75h4.33v10.35c0,.62.06,1.18.19,1.69.12.51.33.94.62,1.3s.67.64,1.15.84,1.06.3,1.75.3,1.34-.09,1.82-.28c.48-.18.86-.45,1.14-.8.28-.35.48-.78.6-1.27.12-.5.17-1.07.17-1.7v-10.42Z"/>
    <path class="cls-1" d="m158.66,143.87v-2.52c-.25.38-.56.75-.95,1.11-.38.36-.83.67-1.34.95-.51.28-1.1.5-1.74.66-.65.17-1.34.25-2.09.25-1.38,0-2.61-.25-3.7-.76s-2.01-1.19-2.76-2.05c-.76-.86-1.34-1.86-1.74-3-.41-1.14-.61-2.35-.61-3.61,0-1.4.24-2.68.71-3.82.47-1.15,1.12-2.14,1.94-2.96.82-.83,1.78-1.46,2.89-1.91s2.28-.67,3.52-.67c1.15,0,2.22.14,3.21.41,1,.28,1.88.7,2.65,1.26.77.57,1.42,1.29,1.94,2.16.52.87.89,1.91,1.11,3.11h-4.06c-.33-1.08-.91-1.87-1.74-2.35-.83-.48-1.81-.72-2.94-.72-.68,0-1.31.12-1.9.37-.59.25-1.11.61-1.56,1.09s-.8,1.05-1.06,1.74-.39,1.46-.39,2.32c0,.82.1,1.58.31,2.29s.52,1.32.93,1.85c.41.53.92.94,1.52,1.24.6.3,1.29.45,2.09.45,1.15,0,2.08-.27,2.81-.83s1.19-1.24,1.37-2.08h-4.45v-3.17h9.43v9.2h-3.41Z"/>
  </g>
</svg>